<?xml version="1.0" standalone="no"?><!DOCTYPE svg PUBLIC "-//W3C//DTD SVG 1.1//EN" "http://www.w3.org/Graphics/SVG/1.1/DTD/svg11.dtd"><svg t="1667285616847" class="icon" viewBox="0 0 1024 1024" version="1.1" xmlns="http://www.w3.org/2000/svg" p-id="2765" xmlns:xlink="http://www.w3.org/1999/xlink" width="32" height="32"><path d="M908.611316 239.2926l2.694737 711.518222c0 16.437893-13.177261 29.642101-29.642102 29.642102h-687.831488c-16.437893 0-29.642101-13.204209-29.642101-29.642102V73.027359c0-16.451366 13.204209-29.642101 29.642101-29.642102l522.482457-1.104842L675.1124 0.013474H195.274147a69.48378 69.48378 0 0 0-69.578096 69.564622v884.843673a69.497254 69.497254 0 0 0 69.578096 69.59157H880.235741a69.510728 69.510728 0 0 0 69.578096-69.59157V281.573016l-41.202521-42.29389z" fill="#D6473B" fill-opacity=".4" p-id="2766"></path><path d="M675.1124 206.201236a75.506516 75.506516 0 0 0 75.546937 75.546937h199.329658L675.1124 0v206.201236z" fill="#EF6A63" p-id="2767"></path><path d="M532.331787 481.091305H109.972263A96.471566 96.471566 0 0 1 13.47375 384.592792v-63.797887a96.471566 96.471566 0 0 1 96.498513-96.511987H532.34526a96.471566 96.471566 0 0 1 96.498514 96.511987v63.797887a96.471566 96.471566 0 0 1-96.498514 96.498513" fill="#FA4E4E" p-id="2768"></path><path d="M464.734322 274.890069h38.130521v124.335142h59.647992v40.663573h-97.778513V274.890069z m-124.685457 0h102.453881v35.23368h-64.148202v26.206312h59.472834v33.616838H378.34107v32.538943h65.967149v37.402942h-104.286302V274.890069z m-142.794087 0h42.132205l21.854313 50.782309 21.315366-50.795783h41.754942l-38.494311 79.885464 42.105258 85.126725h-43.007995l-24.400839-52.951572-24.387365 52.951572h-42.657679l42.657679-86.029462-38.871574-78.969253z m-116.372195 0h102.453881v35.23368h-64.134728v26.206312h59.45936v33.616838H119.201736v32.538943h65.953675v37.402942h-104.286302V274.890069z" fill="#FFFFFF" p-id="2769"></path><path d="M432.033695 628.574233H919.444157v-43.385257H433.448431a69.497254 69.497254 0 0 0-69.564622 69.591569V997.0525h555.560348v-3.961262H403.644646l-0.350316-88.387357H919.444157v-45.541047H403.105699l-0.350316-88.387356H919.444157v-45.541047H402.728435l-0.161684-67.233675c-0.188632-16.074103 13.190735-29.439996 29.45347-29.439997" fill="#EF6A63" p-id="2770"></path></svg>